<svg xmlns="http://www.w3.org/2000/svg" viewBox="15 24 71 43"><path fill="#39481f" d="M66.682 47.733 50.296 60.288 33.868 47.785l-18.352 18.25.013 5.547c.002 1.598 1.389 2.888 3.089 2.881l63.397-.102c1.705.005 3.084-1.289 3.082-2.887l-.008-5.539-18.407-18.202zM29.972 44.821l-14.503-11.04.037 25.424zM70.572 44.76l14.506 14.337-.038-25.419z"/><path fill="#39481f" d="m81.941 24.296-63.399.093c-1.704.004-3.085 1.295-3.082 2.893v1.239l34.828 26.508 34.743-26.612v-1.239c-.004-1.599-1.388-2.887-3.09-2.882z"/></svg>