<svg xmlns="http://www.w3.org/2000/svg" viewBox="15 24 71 43"><path fill="#39481f" d="M66.682,47.733L50.296,60.288L33.868,47.785l-18.352,18.25l0.013,5.547c0.002,1.598,1.389,2.888,3.089,2.881  l63.397-0.102c1.705,0.005,3.084-1.289,3.082-2.887l-0.008-5.539L66.682,47.733z"></path><polygon fill="#39481f" points="29.972,44.821 15.469,33.781 15.506,59.205 "></polygon><polygon fill="#39481f" points="70.572,44.76 85.078,59.097 85.04,33.678 "></polygon><path fill="#39481f" d="M81.941,24.296l-63.399,0.093c-1.704,0.004-3.085,1.295-3.082,2.893v1.239l34.828,26.508l34.743-26.612   v-1.239C85.027,25.579,83.643,24.291,81.941,24.296z"></path></svg>
